<svg enable-background="new 0 0 210 71" viewBox="0 0 210 71" xmlns="http://www.w3.org/2000/svg"><path d="m0-3.89764h210v78.13953h-210z" fill="none"/><path d="m33.52358 62.07601c6.13225 0 11.25134-1.22645 14.77071-3.62602-4.37256 3.46605-9.97157 5.54568-15.99716 5.54568-3.46605 0-6.71881-.69321-9.70495-1.91966z" fill="#0054c0"/><path d="m50.96048 56.05041c1.75969-2.07963 2.71952-4.74583 2.66619-7.94526 0-7.57199-5.43903-12.63776-12.69108-13.27765 4.47921-.53324 8.74511-3.99929 8.74511-10.55812 0-3.19943-1.01315-5.65233-2.82616-7.57199 6.82546 4.63918 11.30467 12.47779 11.30467 21.38288.05332 6.98542-2.71952 13.27764-7.19873 17.97014z" fill="#0054c0"/><path d="m19.65937 60.63626c-7.89193-4.47921-13.171-12.90437-13.171-22.556 0-8.31852 3.89264-15.67722 9.97156-20.42304v40.73944s10.5048-1.91966 10.77142-8.2652c0-.42659 0-1.65304 0-1.65304v-33.32742h2.02631c5.49236 0 9.11838 2.87949 9.11838 10.02489 0 7.19872-4.26591 9.75827-8.74512 9.75827v.69321c6.34554 0 11.99787 3.25276 11.73125 11.57129-.21327 8.7451-13.011 12.15783-21.7028 13.4376z" fill="#0054c0"/><path d="m48.72088 10.61847h6.66549v6.66548h-6.66549z" fill="#ff3f00"/><path d="m55.33304 6.8858h3.19943v3.19943h-3.19943z" fill="#ff3f00"/><path d="m56.61282 10.61847h1.91966v1.91966h-1.91966z" fill="#ff3f00"/><path d="m52.88015 6.8858h1.91966v1.91966h-1.91966z" fill="#ff3f00"/><g fill="#0047b0"><path d="m70.05043 40.05325v-16.26378h8.53182c3.09278 0 4.6925 1.97298 4.6925 4.15926 0 2.02631-1.27977 3.41273-2.82616 3.73267 1.70636.26662 3.1461 1.97298 3.1461 3.99929 0 2.4529-1.65304 4.37255-4.74582 4.37255h-8.79844zm9.70494-11.51796c0-1.01315-.74653-1.75969-1.91966-1.75969h-4.31924v3.51938h4.31924c1.17313 0 1.91966-.69321 1.91966-1.75969zm.31995 6.66549c0-1.01316-.74653-1.91966-2.07963-1.91966h-4.47919v3.78599h4.47919c1.27977 0 2.07963-.6932 2.07963-1.86633z"/><path d="m95.37927 40.05325-3.19943-5.75898h-2.55955v5.75898h-3.46606v-16.26378h7.62532c3.41272 0 5.43903 2.2396 5.43903 5.22574 0 2.87949-1.81301 4.42588-3.5727 4.85247l3.67934 6.18557zm.37326-10.98472c0-1.38642-1.06647-2.18628-2.4529-2.18628h-3.62603v4.37255h3.62603c1.38643.00001 2.4529-.85317 2.4529-2.18627z"/><path d="m101.08492 31.94802c0-4.90579 3.5727-8.42517 8.47849-8.42517s8.53181 3.51938 8.53181 8.42517-3.57269 8.42517-8.53181 8.42517c-4.85246.00001-8.47849-3.51937-8.47849-8.42517zm13.43762 0c0-3.03946-1.97298-5.33239-4.95912-5.33239s-4.90579 2.29293-4.90579 5.33239 1.91966 5.33239 4.90579 5.33239c3.03946 0 4.95912-2.29293 4.95912-5.33239z"/><path d="m130.9463 40.05325-1.01315-2.77284h-6.98544l-1.01315 2.77284h-3.94597l6.29222-16.26378h4.31923l6.29221 16.26378zm-4.47921-12.79773-2.55955 6.98543h5.06577z"/><path d="m136.38533 40.05325v-16.26378h6.39885c5.11909 0 8.63847 3.25276 8.63847 8.15855s-3.51938 8.10523-8.63847 8.10523zm11.51794-8.10523c0-2.87949-1.75967-5.11909-5.11909-5.11909h-2.9328v10.18486h2.9328c3.25276 0 5.11909-2.29293 5.11909-5.06577z"/><path d="m165.87343 40.05325-2.87949-11.19801-2.82616 11.19801h-3.67934l-4.63919-16.26378h3.89264l2.87949 11.73125 3.09277-11.73125h2.71953l3.09277 11.73125 2.82616-11.73125h3.89264l-4.63919 16.26378z"/><path d="m185.97652 40.05325-1.01314-2.77284h-6.98544l-1.01314 2.77284h-3.94597l6.29221-16.26378h4.31924l6.29221 16.26378zm-4.47921-12.79773-2.55954 6.98543h5.06578z"/><path d="m194.34837 40.05325v-6.66549l-6.29221-9.5983h3.94597l4.05261 6.55884 3.99928-6.55884h3.94598l-6.23891 9.59829v6.66549h-3.41272z"/></g><path d="m70.58367 58.55663v-12.53111h2.66619v12.53111z" fill="#00c3ff"/><path d="m83.59469 58.55663-5.97227-8.15855v8.15855h-2.6662v-12.53111h2.71952l5.8123 7.83861v-7.83861h2.66619v12.53111z" fill="#00c3ff"/><path d="m87.91393 58.55663v-12.53111h8.85177v2.34625h-6.18557v2.66619h6.07892v2.34625h-6.07892v5.17241h-2.6662z" fill="#00c3ff"/><path d="m97.24561 52.26442c0-3.78599 2.77284-6.45219 6.50551-6.45219 3.786 0 6.55884 2.71952 6.55884 6.45219 0 3.786-2.77283 6.45219-6.55884 6.45219-3.73267.05332-6.50551-2.6662-6.50551-6.45219zm10.34482 0c0-2.34625-1.49306-4.10593-3.786-4.10593s-3.786 1.75969-3.786 4.10593c0 2.34625 1.49306 4.10594 3.786 4.10594s3.786-1.75969 3.786-4.10594z" fill="#00c3ff"/><path d="m110.57658 56.74362 1.43974-2.02631c.9065.90651 2.2396 1.70636 3.99929 1.70636 1.43974 0 2.18628-.69321 2.18628-1.38642 0-2.2396-7.19872-.69321-7.19872-5.38571 0-2.07963 1.81301-3.786 4.74582-3.786 1.97298 0 3.62602.58656 4.85248 1.75969l-1.49307 1.97298c-1.01315-.95984-2.34624-1.38642-3.62602-1.38642-1.1198 0-1.75969.53324-1.75969 1.27977 0 1.97298 7.19872.63988 7.19872 5.33239 0 2.29293-1.65305 3.99929-5.01244 3.99929-2.39959-.05331-4.15928-.85317-5.33239-2.07962z" fill="#00c3ff"/><path d="m125.24064 58.55663v-5.11909l-4.79915-7.41202h3.03946l3.09278 5.01245 3.09279-5.01245h3.03946l-4.79915 7.41202v5.11909z" fill="#00c3ff"/><path d="m131.8528 56.74362 1.43974-2.02631c.90651.90651 2.23961 1.70636 3.9993 1.70636 1.43974 0 2.18628-.69321 2.18628-1.38642 0-2.2396-7.19873-.69321-7.19873-5.38571 0-2.07963 1.81302-3.786 4.74583-3.786 1.97298 0 3.62601.58656 4.85246 1.75969l-1.49306 1.97298c-1.01315-.95984-2.34625-1.38642-3.62602-1.38642-1.1198 0-1.75967.53324-1.75967 1.27977 0 1.97298 7.19872.63988 7.19872 5.33239 0 2.29293-1.65303 3.99929-5.01244 3.99929-2.3996-.05331-4.15929-.85317-5.33241-2.07962z" fill="#00c3ff"/></svg>